<svg xmlns="http://www.w3.org/2000/svg" viewBox="0 0 1004 203" role="img" aria-labelledby="title desc"><title id="title">ctxindex horizontal lockup — monochrome light</title><desc id="desc">The ctxindex mark beside the outlined Geist wordmark with amber index and i dots.</desc><g transform="translate(-29.97 -23.55) scale(2.5694)"><g id="mark"><path d="M49 18H35Q18 18 18 35V47" fill="none" stroke="#f2f5f7" stroke-width="8" stroke-linecap="round" stroke-linejoin="round"/><path d="M18 68Q18 82 35 82H65Q82 82 82 65V50" fill="none" stroke="#f2f5f7" stroke-width="8" stroke-linecap="round" stroke-linejoin="round"/><circle id="mark-signal-dot" cx="82" cy="18" r="6.5" fill="#f2f5f7"/><rect x="39" y="43" width="22" height="6" rx="3" fill="#f2f5f7"/><rect x="39" y="53" width="16" height="6" rx="3" fill="#f2f5f7"/></g></g><g transform="translate(241.80 157.92) scale(0.18762)"><g id="wordmark"><g id="wordmark-ctx"><path transform="translate(0 0)" d="M297.361083984375 12.0Q219.440673828125 12.0 161.8603515625 -22.280029296875Q104.280029296875 -56.56005859375 72.4598388671875 -119.340087890625Q40.6396484375 -182.1201171875 40.6396484375 -266.400146484375Q40.6396484375 -350.68017578125 72.4598388671875 -412.960205078125Q104.280029296875 -475.240234375 161.8603515625 -510.020263671875Q219.440673828125 -544.80029296875 297.361083984375 -544.80029296875Q363.12158203125 -544.80029296875 414.6820068359375 -521.6201171875Q466.242431640625 -498.43994140625 498.6226806640625 -454.7796630859375Q531.0029296875 -411.119384765625 539.44287109375 -348.759033203125L420.359619140625 -342.198974609375Q412.19970703125 -393.798828125 379.1201171875 -420.898681640625Q346.04052734375 -447.99853515625 297.361083984375 -447.99853515625Q232.201904296875 -447.99853515625 195.96240234375 -399.8389892578125Q159.722900390625 -351.679443359375 159.722900390625 -266.400146484375Q159.722900390625 -180.8408203125 195.96240234375 -132.6812744140625Q232.201904296875 -84.521728515625 297.361083984375 -84.521728515625Q346.320556640625 -84.521728515625 379.5401611328125 -112.7015380859375Q412.759765625 -140.88134765625 420.359619140625 -198.361083984375L539.44287109375 -192.361083984375Q531.282958984375 -130.000732421875 499.1827392578125 -84.1204833984375Q467.08251953125 -38.240234375 415.5220947265625 -13.1201171875Q363.961669921875 12.0 297.361083984375 12.0Z" fill="#f2f5f7"/><path transform="translate(-8 0)" d="M822.720703125 0.0Q745.400146484375 0.0 708.7999267578125 -35.6602783203125Q672.19970703125 -71.320556640625 672.19970703125 -147.76123046875V-657.640380859375H787.0029296875V-157.0419921875Q787.0029296875 -119.921875 803.1429443359375 -105.7818603515625Q819.282958984375 -91.641845703125 852.56298828125 -91.641845703125H928.0029296875V0.0ZM590.279296875 -441.158447265625V-532.80029296875H928.0029296875V-441.158447265625Z" fill="#f2f5f7"/><path transform="translate(-16 0)" d="M972.43994140625 0.0 1165.479736328125 -272.0 980.19970703125 -532.80029296875H1106.7626953125L1234.281494140625 -345.681640625L1358.3603515625 -532.80029296875H1487.4833984375L1303.643310546875 -270.56005859375L1494.80322265625 0.0H1368.240234375L1235.401611328125 -198.87841796875L1101.56298828125 0.0Z" fill="#f2f5f7"/></g><g id="wordmark-index"><path id="i-stem" transform="translate(-24 0)" d="M1564.279296875 0.0V-532.80029296875H1679.08251953125V0.0Z" fill="#f2f5f7"/><path id="i-dot" transform="translate(-24 0)" d="M1561.999267578125 -607.679443359375V-716.320556640625H1681.362548828125V-607.679443359375Z" fill="#f2f5f7"/><path transform="translate(-32 0)" d="M1831.279296875 0.0V-532.80029296875H1935.442138671875L1939.84228515625 -387.439208984375L1925.921875 -394.47900390625Q1934.8017578125 -447.6396484375 1959.6617431640625 -480.659912109375Q1984.521728515625 -513.68017578125 2020.581787109375 -529.240234375Q2056.641845703125 -544.80029296875 2099.0419921875 -544.80029296875Q2158.641845703125 -544.80029296875 2198.701904296875 -518.640380859375Q2238.761962890625 -492.48046875 2259.2420654296875 -446.98046875Q2279.72216796875 -401.48046875 2279.72216796875 -342.68017578125V0.0H2164.9189453125V-306.638916015625Q2164.9189453125 -352.838623046875 2155.379150390625 -384.658447265625Q2145.83935546875 -416.478271484375 2124.0596923828125 -433.13818359375Q2102.280029296875 -449.798095703125 2066.200439453125 -449.798095703125Q2011.921142578125 -449.798095703125 1979.0018310546875 -413.1182861328125Q1946.08251953125 -376.4384765625 1946.08251953125 -306.638916015625V0.0Z" fill="#f2f5f7"/><path transform="translate(-40 0)" d="M2602.679443359375 12.0Q2534.239501953125 12.0 2484.299560546875 -22.1400146484375Q2434.359619140625 -56.280029296875 2407.4996337890625 -118.7000732421875Q2380.6396484375 -181.1201171875 2380.6396484375 -266.400146484375Q2380.6396484375 -351.68017578125 2407.6396484375 -414.1002197265625Q2434.6396484375 -476.520263671875 2484.7196044921875 -510.6602783203125Q2534.799560546875 -544.80029296875 2602.679443359375 -544.80029296875Q2657.6396484375 -544.80029296875 2700.51953125 -521.8802490234375Q2743.3994140625 -498.960205078125 2765.119384765625 -457.68017578125V-710.0H2879.922607421875V0.0H2772.279296875L2769.279296875 -79.43994140625Q2747.279296875 -36.43994140625 2702.9793701171875 -12.219970703125Q2658.679443359375 12.0 2602.679443359375 12.0ZM2634.801025390625 -84.521728515625Q2676.760498046875 -84.521728515625 2705.7601318359375 -106.00146484375Q2734.759765625 -127.481201171875 2749.9395751953125 -168.3408203125Q2765.119384765625 -209.200439453125 2765.119384765625 -266.400146484375Q2765.119384765625 -325.039794921875 2749.9395751953125 -365.5394287109375Q2734.759765625 -406.0390625 2705.7601318359375 -427.1588134765625Q2676.760498046875 -448.278564453125 2634.801025390625 -448.278564453125Q2572.921875 -448.278564453125 2536.3223876953125 -399.698974609375Q2499.722900390625 -351.119384765625 2499.722900390625 -266.400146484375Q2499.722900390625 -182.9609375 2536.46240234375 -133.7413330078125Q2573.201904296875 -84.521728515625 2634.801025390625 -84.521728515625Z" fill="#f2f5f7"/><path transform="translate(-48 0)" d="M3239.52099609375 12.0Q3161.16064453125 12.0 3103.7203369140625 -22.280029296875Q3046.280029296875 -56.56005859375 3014.9598388671875 -119.340087890625Q2983.6396484375 -182.1201171875 2983.6396484375 -266.400146484375Q2983.6396484375 -350.68017578125 3014.9598388671875 -412.960205078125Q3046.280029296875 -475.240234375 3103.0003662109375 -510.020263671875Q3159.720703125 -544.80029296875 3236.64111328125 -544.80029296875Q3310.681640625 -544.80029296875 3366.6219482421875 -511.18017578125Q3422.562255859375 -477.56005859375 3453.3223876953125 -414.159912109375Q3484.08251953125 -350.759765625 3484.08251953125 -261.19970703125V-233.679443359375H3103.0029296875Q3107.162841796875 -158.760498046875 3143.46240234375 -121.2210693359375Q3179.761962890625 -83.681640625 3240.64111328125 -83.681640625Q3286.200439453125 -83.681640625 3316.06005859375 -104.4012451171875Q3345.919677734375 -125.120849609375 3357.799560546875 -161.760498046875L3476.362548828125 -153.92041015625Q3455.08251953125 -78.43994140625 3392.2420654296875 -33.219970703125Q3329.401611328125 12.0 3239.52099609375 12.0ZM3103.0029296875 -316.080322265625H3363.51953125Q3358.919677734375 -384.679443359375 3324.4801025390625 -417.4591064453125Q3290.04052734375 -450.23876953125 3236.64111328125 -450.23876953125Q3182.36181640625 -450.23876953125 3147.062255859375 -415.9591064453125Q3111.7626953125 -381.679443359375 3103.0029296875 -316.080322265625Z" fill="#f2f5f7"/><path transform="translate(-56 0)" d="M3515.43994140625 0.0 3708.479736328125 -272.0 3523.19970703125 -532.80029296875H3649.7626953125L3777.281494140625 -345.681640625L3901.3603515625 -532.80029296875H4030.4833984375L3846.643310546875 -270.56005859375L4037.80322265625 0.0H3911.240234375L3778.401611328125 -198.87841796875L3644.56298828125 0.0Z" fill="#f2f5f7"/></g></g></g></svg>